HIERARCHY
ROOT Hips
{
	OFFSET 0.00000 0.00000 0.00000
	CHANNELS 6 Xposition Yposition Zposition Zrotation Yrotation Xrotation 
	JOINT LHipJoint
	{
		OFFSET 0 0 0
		CHANNELS 3 Zrotation Yrotation Xrotation
		JOINT LeftHip
		{
			OFFSET 1.60223 -1.58443 0.78595
			CHANNELS 3 Zrotation Yrotation Xrotation
			JOINT LeftKnee
			{
				OFFSET 2.21690 -6.09089 0.00000
				CHANNELS 3 Zrotation Yrotation Xrotation
				JOINT LeftAnkle
				{
					OFFSET 2.34805 -6.45122 0.00000
					CHANNELS 3 Zrotation Yrotation Xrotation
					JOINT LeftToe
					{
						OFFSET 0.35452 -0.97402 1.38549
						CHANNELS 3 Zrotation Yrotation Xrotation
						End Site
						{
							OFFSET 0.00000 -0.00000 0.82816
						}
					}
				}
			}
		}
	}
	JOINT RHipJoint
	{
		OFFSET 0 0 0
		CHANNELS 3 Zrotation Yrotation Xrotation
		JOINT RightHip
		{
			OFFSET -1.56524 -1.58443 0.78595
			CHANNELS 3 Zrotation Yrotation Xrotation
			JOINT RightKnee
			{
				OFFSET -2.15558 -5.92241 0.00000
				CHANNELS 3 Zrotation Yrotation Xrotation
				JOINT RightAnkle
				{
					OFFSET -2.35077 -6.45870 0.00000
					CHANNELS 3 Zrotation Yrotation Xrotation
					JOINT RightToe
					{
						OFFSET -0.26910 -0.73935 1.33295
						CHANNELS 3 Zrotation Yrotation Xrotation
						End Site
						{
							OFFSET -0.00000 -0.00000 0.75962
						}
					}
				}
			}
		}
	}
	JOINT lowerback
	{
		OFFSET 0 0 0
		CHANNELS 3 Zrotation Yrotation Xrotation
		JOINT Chest
		{
			OFFSET -0.05489 1.97104 -0.02993
			CHANNELS 3 Zrotation Yrotation Xrotation
			JOINT Chest2
			{
				OFFSET -0.00702 1.94230 0.13626
				CHANNELS 3 Zrotation Yrotation Xrotation
				JOINT lowerneck
				{
					OFFSET 0 0 0
					CHANNELS 3 Zrotation Yrotation Xrotation
					JOINT Neck
					{
						OFFSET -0.07858 1.62869 -0.02510
						CHANNELS 3 Zrotation Yrotation Xrotation
						JOINT Head
						{
							OFFSET 0.13978 1.59213 -0.29859
							CHANNELS 3 Zrotation Yrotation Xrotation
							End Site
							{
								OFFSET 0.05353 1.64420 -0.10000
							}
						}
					}
				}
				JOINT LeftCollar
				{
					OFFSET 0 0 0
					CHANNELS 3 Zrotation Yrotation Xrotation
					JOINT LeftShoulder
					{
						OFFSET 3.48263 1.15278 0.52941
CHANNELS 3 Zrotation Xrotation Yrotation
						JOINT LeftElbow
						{
OFFSET 0 -4.592070 -0.000000
CHANNELS 3 Zrotation Xrotation Yrotation
							JOINT LeftWrist
							{
OFFSET 0 -2.981090 -0.000000
CHANNELS 3 Zrotation Xrotation Yrotation
								JOINT lhand
								{
									OFFSET 0 0 0
CHANNELS 3 Zrotation Xrotation Yrotation
									JOINT LFingers
									{
OFFSET 0 -0.480200 -0.000000
CHANNELS 3 Zrotation Xrotation Yrotation
										End Site
										{
OFFSET 0 -0.387150 -0.000000
										}
									}
								}
								JOINT LThumb
								{
OFFSET 0 0.000000 0.000000
CHANNELS 3 Zrotation Xrotation Yrotation
									End Site
									{
OFFSET 0 -0.393060 0.393060
									}
								}
							}
						}
					}
				}
				JOINT RightCollar
				{
					OFFSET 0 0 0
					CHANNELS 3 Zrotation Yrotation Xrotation
					JOINT RightShoulder
					{
						OFFSET -3.52496 1.12722 0.24548
CHANNELS 3 Zrotation Xrotation Yrotation
						JOINT RightElbow
						{
OFFSET 0 -4.765080 -0.000000
CHANNELS 3 Zrotation Xrotation Yrotation
							JOINT RightWrist
							{
OFFSET 0 -2.789020 -0.000000
CHANNELS 3 Zrotation Xrotation Yrotation
								JOINT rhand
								{
									OFFSET 0 0 0
CHANNELS 3 Zrotation Xrotation Yrotation
									JOINT RFingers
									{
OFFSET 0 -0.721300 -0.000000
CHANNELS 3 Zrotation Xrotation Yrotation
										End Site
										{
OFFSET 0 -0.581530 -0.000000
										}
									}
								}
								JOINT RThumb
								{
OFFSET 0 0.000000 0.000000
CHANNELS 3 Zrotation Xrotation Yrotation
									End Site
									{
OFFSET 0 -0.590410 0.590410
									}
								}
							}
						}
					}
				}
			}
		}
	}
}
MOTION
Frames: 6
Frame Time: 0.008333333333333333
20.706400 15.838100 -1.195200 177.107000 -85.952600 -171.913000 0.000000 0.000000 0.000000 -15.689600 -13.952300 -25.164500 3.598200 11.605600 34.350600 0.916700 3.055000 -19.435400 0.564500 -4.812300 -13.374100 0.000000 0.000000 0.000000 22.657200 -0.019100 -13.369900 -2.141200 -9.154300 26.279200 -2.264700 2.572900 -27.808700 -0.177700 2.715600 -7.488000 0.676600 3.750000 2.431700 -0.969300 4.953600 -4.565500 -1.750000 2.374500 -5.952400 -7.933300 -3.625600 -5.464400 10.520100 -4.918800 4.605100 4.273300 -2.276400 2.717700 0.000000 0.000000 0.000000 -6.925500 7.656100 10.879900 20.087600 -30.747800 5.576100 50.643300 55.871200 -38.863300 0.000000 0.000000 0.000000 -7.125000 0.000000 0.000000 41.841500 79.295900 -34.169400 0.000000 0.000000 0.000000 10.166500 3.976100 -11.255900 -15.855600 -25.324500 -3.584000 -8.461000 1.782300 -41.890000 0.000000 0.000000 0.000000 7.125000 0.000000 -0.000000 13.958500 -11.134400 16.847100
20.413793 15.930841 -1.083273 166.266644 -85.628731 -160.714185 0.000000 0.000000 0.000000 -17.345917 -13.823691 -24.429862 3.585210 11.586925 34.285925 0.919818 3.980032 -19.975421 0.969637 -6.268594 -17.565998 0.000000 0.000000 0.000000 21.326326 0.079724 -11.080983 -1.755086 -8.335997 23.739593 -2.161067 1.308378 -27.460060 -0.278474 3.393487 -9.376318 -0.628863 3.862242 0.734499 -1.097167 5.023543 -4.736797 -1.046383 2.465850 -5.262673 -7.550047 -3.755906 -5.356010 10.140394 -5.139935 5.057793 4.081747 -2.389249 2.834558 0.000000 0.000000 0.000000 -7.601603 11.106507 7.287494 22.864175 -33.939908 7.062295 48.198351 52.517996 -39.922503 0.000000 0.000000 0.000000 -7.125000 0.000000 0.000000 34.115943 79.853608 -28.012219 0.000000 0.000000 0.000000 10.309458 4.440735 -14.128181 -15.363982 -24.650689 -3.376310 -9.426326 1.413947 -41.227268 0.000000 0.000000 0.000000 7.125000 0.000000 0.000000 13.405447 -10.641494 16.053289
20.127245 15.998972 -0.970139 149.464855 -85.644980 -144.052321 0.000000 0.000000 0.000000 -19.456481 -13.017644 -23.648475 3.638789 11.663608 34.551987 1.028979 2.457775 -20.196130 1.079104 -6.602512 -18.543070 0.000000 0.000000 0.000000 19.734097 0.998275 -8.394886 -1.547102 -7.851136 22.262698 -2.305941 -0.594138 -28.971967 -0.205527 2.897810 -7.995957 -2.321792 4.161834 0.128592 -1.629607 5.321036 -5.216496 -0.658337 2.664860 -5.531784 -6.837434 -4.275969 -4.485781 10.047352 -5.982837 5.486327 3.906048 -2.819803 2.869755 0.000000 0.000000 0.000000 -6.786230 12.098478 5.562798 22.454784 -33.487172 6.835079 45.300491 49.100496 -38.750600 0.000000 0.000000 0.000000 -7.125000 0.000000 0.000000 23.647209 77.850224 -18.314112 0.000000 0.000000 0.000000 11.192078 5.846983 -17.536193 -15.352681 -24.635088 -3.371574 -10.056849 0.588180 -40.544654 0.000000 0.000000 0.000000 7.125000 0.000000 0.000000 13.011147 -10.080315 15.455327
19.861018 15.989522 -0.821397 138.555422 -85.374399 -133.082968 0.000000 0.000000 0.000000 -21.386861 -12.122449 -22.662373 3.555562 11.544282 34.138280 1.135170 1.069166 -20.547063 0.893929 -6.026193 -16.860437 0.000000 0.000000 0.000000 18.428501 2.008128 -7.352777 -1.640378 -8.072913 22.935768 -2.383468 -2.669012 -30.227398 -0.491506 4.494839 -12.473192 -3.260518 4.133011 -1.053090 -1.884963 5.274463 -5.250808 -0.310964 2.670006 -4.962321 -6.889493 -4.469019 -4.245121 9.998989 -6.279823 5.842563 3.887114 -2.972857 2.961179 0.000000 0.000000 0.000000 -6.856210 12.232456 4.689861 22.405048 -33.431788 6.807670 44.950147 48.428361 -38.669792 0.000000 0.000000 0.000000 -7.125000 0.000000 0.000000 22.615930 77.659087 -17.414094 0.000000 0.000000 0.000000 11.322168 6.806344 -17.775652 -15.745165 -25.173788 -3.536943 -9.368229 -1.419438 -39.814398 0.000000 0.000000 0.000000 7.125000 0.000000 0.000000 13.276471 -9.269580 15.633130
19.607080 15.972067 -0.652254 134.951978 -84.653495 -129.917092 0.000000 0.000000 0.000000 -23.340680 -10.493311 -21.221369 3.437916 11.372184 33.545680 1.265794 -0.138440 -21.237200 0.756415 -5.553974 -15.495741 0.000000 0.000000 0.000000 17.003329 2.624810 -6.216341 -1.811118 -8.460850 24.122850 -2.494576 -3.065034 -31.060730 -0.345397 3.776353 -10.448421 -4.067806 4.280138 -1.688652 -1.954376 5.487438 -5.098123 0.110860 2.801712 -4.523072 -6.796266 -4.612751 -4.774519 9.453041 -6.496805 7.005755 3.674178 -3.068090 3.393592 0.000000 0.000000 0.000000 -7.149850 12.096456 3.743910 22.274207 -33.285508 6.735725 45.684535 49.411802 -38.815978 0.000000 0.000000 0.000000 -7.125000 0.000000 0.000000 24.807784 78.033024 -19.322593 0.000000 0.000000 0.000000 11.047275 7.805758 -17.013695 -16.354103 -25.998174 -3.799928 -8.717222 -2.795135 -39.121455 0.000000 0.000000 0.000000 7.125000 0.000000 0.000000 13.535877 -8.504359 15.804249
19.402992 15.953904 -0.494697 133.852895 -83.954777 -129.216447 0.000000 0.000000 0.000000 -24.836264 -9.200907 -20.024150 3.338609 11.223983 33.039101 1.385804 -1.363539 -21.857789 0.547529 -4.738419 -13.164244 0.000000 0.000000 0.000000 15.810420 2.591998 -6.114746 -2.079159 -9.027987 25.883690 -2.380931 -3.906038 -30.744386 -0.716606 5.333685 -14.881609 -4.905653 4.399061 -1.988367 -1.909554 5.673116 -4.805257 0.648137 2.921047 -4.147402 -6.713246 -4.790381 -5.670414 8.878189 -6.706433 7.927097 3.446076 -3.156909 3.814844 0.000000 0.000000 0.000000 -7.266298 11.721049 1.683068 21.858531 -32.816661 6.509059 47.181470 51.833433 -39.316215 0.000000 0.000000 0.000000 -7.125000 0.000000 0.000000 29.874892 78.975497 -23.931428 0.000000 0.000000 0.000000 10.685120 8.629229 -15.735100 -17.105083 -26.995965 -4.135048 -8.015816 -3.283274 -39.314083 0.000000 0.000000 0.000000 7.125000 0.000000 0.000000 13.912231 -8.590158 16.286221
